<svg width="335" height="17" viewBox="0 0 335 17" fill="none" xmlns="http://www.w3.org/2000/svg">
<line x1="1" y1="7.5" x2="150" y2="7.5" stroke="black" stroke-opacity="0.1" stroke-width="2" stroke-linecap="round"/>
<path d="M163.596 12.144C165.984 12.144 167.688 10.392 167.688 8.004C167.688 5.616 165.984 3.864 163.596 3.864C161.196 3.864 159.504 5.616 159.504 8.004C159.504 10.392 161.196 12.144 163.596 12.144ZM163.596 10.896C161.976 10.896 160.944 9.648 160.944 8.004C160.944 6.348 161.976 5.112 163.596 5.112C165.204 5.112 166.248 6.348 166.248 8.004C166.248 9.648 165.204 10.896 163.596 10.896ZM174.872 12L172.904 8.856C173.876 8.7 174.812 7.92 174.812 6.504C174.812 5.016 173.768 3.996 172.184 3.996H168.668V12H170.072V9.012H171.476L173.24 12H174.872ZM172.004 7.776H170.072V5.232H172.004C172.796 5.232 173.372 5.724 173.372 6.492C173.372 7.272 172.796 7.776 172.004 7.776Z" fill="black" fill-opacity="0.4"/>
<line x1="185" y1="7.5" x2="334" y2="7.5" stroke="black" stroke-opacity="0.1" stroke-width="2" stroke-linecap="round"/>
</svg>
